
<global>
amp_veltrack=0
ampeg_attack=0.01
ampeg_release=0.35
</global>

<group>
group_label=PP
xf_cccurve=gain
xfin_hicc1=42
xfout_hicc1=85
xfout_locc1=42

<region>
hikey=g6
hivel=127
lokey=f#6
loop_end=288671
loop_mode=loop_continuous
loop_start=130992
loop_xfade=46248
lovel=1
offset=23353
pitch_keycenter=g6
sample=Violins2_trill_whole_PP_G6.opus
</region>

<region>
hikey=g5
hivel=127
lokey=f#5
loop_end=288671
loop_mode=loop_continuous
loop_start=130992
loop_xfade=46248
lovel=1
offset=17174
pitch_keycenter=g5
sample=Violins2_trill_whole_PP_G5.opus
</region>

<region>
hikey=g4
hivel=127
lokey=f#4
loop_end=288572
loop_mode=loop_continuous
loop_start=130946
loop_xfade=46232
lovel=1
offset=17572
pitch_keycenter=g4
sample=Violins2_trill_whole_PP_G4.opus
</region>

<region>
hivel=127
key=g3
loop_end=288391
loop_mode=loop_continuous
loop_start=130864
loop_xfade=46203
lovel=1
offset=35650
sample=Violins2_trill_whole_PP_G3.opus
</region>

<region>
hikey=f6
hivel=127
lokey=e6
loop_end=288671
loop_mode=loop_continuous
loop_start=130992
loop_xfade=46248
lovel=1
offset=19382
pitch_keycenter=f6
sample=Violins2_trill_whole_PP_F6.opus
</region>

<region>
hikey=f5
hivel=127
lokey=e5
loop_end=288671
loop_mode=loop_continuous
loop_start=130992
loop_xfade=46248
lovel=1
offset=31700
pitch_keycenter=f5
sample=Violins2_trill_whole_PP_F5.opus
</region>

<region>
hikey=f4
hivel=127
lokey=e4
loop_end=288671
loop_mode=loop_continuous
loop_start=130992
loop_xfade=46248
lovel=1
offset=27901
pitch_keycenter=f4
sample=Violins2_trill_whole_PP_F4.opus
</region>

<region>
hikey=d#6
hivel=127
lokey=d6
loop_end=288671
loop_mode=loop_continuous
loop_start=130992
loop_xfade=46248
lovel=1
offset=27302
pitch_keycenter=d#6
sample=Violins2_trill_whole_PP_D#6.opus
</region>

<region>
hikey=d#5
hivel=127
lokey=d5
loop_end=288671
loop_mode=loop_continuous
loop_start=130992
loop_xfade=46248
lovel=1
offset=23624
pitch_keycenter=d#5
sample=Violins2_trill_whole_PP_D#5.opus
</region>

<region>
hikey=d#4
hivel=127
lokey=d4
loop_end=288671
loop_mode=loop_continuous
loop_start=130992
loop_xfade=46248
lovel=1
offset=12991
pitch_keycenter=d#4
sample=Violins2_trill_whole_PP_D#4.opus
</region>

<region>
hikey=c#6
hivel=127
lokey=c6
loop_end=288671
loop_mode=loop_continuous
loop_start=130992
loop_xfade=46248
lovel=1
offset=32896
pitch_keycenter=c#6
sample=Violins2_trill_whole_PP_C#6.opus
</region>

<region>
hikey=c#5
hivel=127
lokey=c5
loop_end=286271
loop_mode=loop_continuous
loop_start=129902
loop_xfade=45864
lovel=1
offset=25367
pitch_keycenter=c#5
sample=Violins2_trill_whole_PP_C#5.opus
</region>

<region>
hikey=c#4
hivel=127
lokey=c4
loop_end=254899
loop_mode=loop_continuous
loop_start=115667
loop_xfade=40837
lovel=1
offset=9574
pitch_keycenter=c#4
sample=Violins2_trill_whole_PP_C#4.opus
</region>

<region>
hikey=D7
hivel=127
lokey=a#6
loop_end=288671
loop_mode=loop_continuous
loop_start=130992
loop_xfade=46248
lovel=1
offset=21936
pitch_keycenter=B6
sample=Violins2_trill_whole_PP_B6.opus
</region>

<region>
hikey=b5
hivel=127
lokey=a#5
loop_end=288671
loop_mode=loop_continuous
loop_start=130992
loop_xfade=46248
lovel=1
offset=23020
pitch_keycenter=b5
sample=Violins2_trill_whole_PP_B5.opus
</region>

<region>
hikey=b4
hivel=127
lokey=a#4
loop_end=287239
loop_mode=loop_continuous
loop_start=130342
loop_xfade=46018
lovel=1
offset=25954
pitch_keycenter=b4
sample=Violins2_trill_whole_PP_B4.opus
</region>

<region>
hikey=b3
hivel=127
lokey=a#3
loop_end=255364
loop_mode=loop_continuous
loop_start=115877
loop_xfade=40912
lovel=1
offset=26513
pitch_keycenter=b3
sample=Violins2_trill_whole_PP_B3.opus
</region>

<region>
hikey=a6
hivel=127
lokey=g#6
loop_end=288671
loop_mode=loop_continuous
loop_start=130992
loop_xfade=46248
lovel=1
offset=26013
pitch_keycenter=a6
sample=Violins2_trill_whole_PP_A6.opus
</region>

<region>
hikey=a5
hivel=127
lokey=g#5
loop_end=288671
loop_mode=loop_continuous
loop_start=130992
loop_xfade=46248
lovel=1
offset=18650
pitch_keycenter=a5
sample=Violins2_trill_whole_PP_A5.opus
</region>

<region>
hikey=a4
hivel=127
lokey=g#4
loop_end=287860
loop_mode=loop_continuous
loop_start=130624
loop_xfade=46118
lovel=1
offset=23472
pitch_keycenter=a4
sample=Violins2_trill_whole_PP_A4.opus
</region>

<region>
hikey=a3
hivel=127
lokey=g#3
loop_end=288351
loop_mode=loop_continuous
loop_start=130846
loop_xfade=46197
lovel=1
offset=19606
pitch_keycenter=a3
sample=Violins2_trill_whole_PP_A3.opus
</region>
</group>

<group>
group_label=MF
xf_cccurve=gain
xfin_hicc1=85
xfin_locc1=42
xfout_hicc1=127
xfout_locc1=85

<region>
hikey=g6
hivel=127
lokey=f#6
loop_end=249421
loop_mode=loop_continuous
loop_start=113181
loop_xfade=39960
lovel=1
offset=2007
pitch_keycenter=g6
sample=Violins2_trill_whole_MF_G6.opus
</region>

<region>
hikey=g5
hivel=127
lokey=f#5
loop_end=258439
loop_mode=loop_continuous
loop_start=117273
loop_xfade=41404
lovel=1
offset=4843
pitch_keycenter=g5
sample=Violins2_trill_whole_MF_G5.opus
</region>

<region>
hikey=g4
hivel=127
lokey=f#4
loop_end=243336
loop_mode=loop_continuous
loop_start=110420
loop_xfade=38985
lovel=1
offset=6773
pitch_keycenter=g4
sample=Violins2_trill_whole_MF_G4.opus
</region>

<region>
hivel=127
key=g3
loop_end=288671
loop_mode=loop_continuous
loop_start=130992
loop_xfade=46248
lovel=1
offset=25268
sample=Violins2_trill_whole_MF_G3.opus
</region>

<region>
hikey=f6
hivel=127
lokey=e6
loop_end=278921
loop_mode=loop_continuous
loop_start=126567
loop_xfade=44686
lovel=1
offset=15430
pitch_keycenter=f6
sample=Violins2_trill_whole_MF_F6.opus
</region>

<region>
hikey=f5
hivel=127
lokey=e5
loop_end=276819
loop_mode=loop_continuous
loop_start=125613
loop_xfade=44349
lovel=1
offset=6550
pitch_keycenter=f5
sample=Violins2_trill_whole_MF_F5.opus
</region>

<region>
hikey=f4
hivel=127
lokey=e4
loop_end=284680
loop_mode=loop_continuous
loop_start=129180
loop_xfade=45609
lovel=1
offset=12825
pitch_keycenter=f4
sample=Violins2_trill_whole_MF_F4.opus
</region>

<region>
hikey=d#6
hivel=127
lokey=d6
loop_end=264808
loop_mode=loop_continuous
loop_start=120163
loop_xfade=42425
lovel=1
offset=2294
pitch_keycenter=d#6
sample=Violins2_trill_whole_MF_D#6.opus
</region>

<region>
hikey=d#5
hivel=127
lokey=d5
loop_end=276021
loop_mode=loop_continuous
loop_start=125251
loop_xfade=44221
lovel=1
offset=5816
pitch_keycenter=d#5
sample=Violins2_trill_whole_MF_D#5.opus
</region>

<region>
hikey=d#4
hivel=127
lokey=d4
loop_end=255134
loop_mode=loop_continuous
loop_start=115773
loop_xfade=40875
lovel=1
offset=1313
pitch_keycenter=d#4
sample=Violins2_trill_whole_MF_D#4.opus
</region>

<region>
hikey=c#6
hivel=127
lokey=c6
loop_end=248936
loop_mode=loop_continuous
loop_start=112961
loop_xfade=39882
lovel=1
offset=3027
pitch_keycenter=c#6
sample=Violins2_trill_whole_MF_C#6.opus
</region>

<region>
hikey=c#5
hivel=127
lokey=c5
loop_end=277748
loop_mode=loop_continuous
loop_start=126035
loop_xfade=44498
lovel=1
offset=14246
pitch_keycenter=c#5
sample=Violins2_trill_whole_MF_C#5.opus
</region>

<region>
hikey=c#4
hivel=127
lokey=c4
loop_end=248673
loop_mode=loop_continuous
loop_start=112842
loop_xfade=39840
lovel=1
offset=2878
pitch_keycenter=c#4
sample=Violins2_trill_whole_MF_C#4.opus
</region>

<region>
hikey=D7
hivel=127
lokey=a#6
loop_end=263654
loop_mode=loop_continuous
loop_start=119639
loop_xfade=42240
lovel=1
offset=17761
pitch_keycenter=B6
sample=Violins2_trill_whole_MF_B6.opus
</region>

<region>
hikey=b5
hivel=127
lokey=a#5
loop_end=277681
loop_mode=loop_continuous
loop_start=126005
loop_xfade=44487
lovel=1
offset=2790
pitch_keycenter=b5
sample=Violins2_trill_whole_MF_B5.opus
</region>

<region>
hikey=b4
hivel=127
lokey=a#4
loop_end=265816
loop_mode=loop_continuous
loop_start=120620
loop_xfade=42587
lovel=1
offset=17800
pitch_keycenter=b4
sample=Violins2_trill_whole_MF_B4.opus
</region>

<region>
hikey=b3
hivel=127
lokey=a#3
loop_end=250792
loop_mode=loop_continuous
loop_start=113803
loop_xfade=40179
lovel=1
offset=4511
pitch_keycenter=b3
sample=Violins2_trill_whole_MF_B3.opus
</region>

<region>
hikey=a6
hivel=127
lokey=g#6
loop_end=280273
loop_mode=loop_continuous
loop_start=127181
loop_xfade=44902
lovel=1
offset=18142
pitch_keycenter=a6
sample=Violins2_trill_whole_MF_A6.opus
</region>

<region>
hikey=a5
hivel=127
lokey=g#5
loop_end=261600
loop_mode=loop_continuous
loop_start=118708
loop_xfade=41911
lovel=1
offset=8265
pitch_keycenter=a5
sample=Violins2_trill_whole_MF_A5.opus
</region>

<region>
hikey=a4
hivel=127
lokey=g#4
loop_end=253879
loop_mode=loop_continuous
loop_start=115204
loop_xfade=40674
lovel=1
offset=3987
pitch_keycenter=a4
sample=Violins2_trill_whole_MF_A4.opus
</region>

<region>
hikey=a3
hivel=127
lokey=g#3
loop_end=260994
loop_mode=loop_continuous
loop_start=118433
loop_xfade=41814
lovel=1
offset=20554
pitch_keycenter=a3
sample=Violins2_trill_whole_MF_A3.opus
</region>
</group>

<group>
group_label=FF
xf_cccurve=gain
xfin_hicc1=127
xfin_locc1=85
xfout_hicc1=127
xfout_locc1=127

<region>
hikey=g6
hivel=127
lokey=f#6
loop_end=244615
loop_mode=loop_continuous
loop_start=111000
loop_xfade=39190
lovel=1
offset=2078
pitch_keycenter=g6
sample=Violins2_trill_whole_FF_G6.opus
</region>

<region>
hikey=g5
hivel=127
lokey=f#5
loop_end=243212
loop_mode=loop_continuous
loop_start=110363
loop_xfade=38965
lovel=1
offset=4790
pitch_keycenter=g5
sample=Violins2_trill_whole_FF_G5.opus
</region>

<region>
hikey=g4
hivel=127
lokey=f#4
loop_end=243750
loop_mode=loop_continuous
loop_start=110608
loop_xfade=39051
lovel=1
offset=6241
pitch_keycenter=g4
sample=Violins2_trill_whole_FF_G4.opus
</region>

<region>
hivel=127
key=g3
loop_end=251936
loop_mode=loop_continuous
loop_start=114322
loop_xfade=40363
lovel=1
offset=4978
sample=Violins2_trill_whole_FF_G3.opus
</region>

<region>
hikey=f6
hivel=127
lokey=e6
loop_end=256214
loop_mode=loop_continuous
loop_start=116263
loop_xfade=41048
lovel=1
offset=19673
pitch_keycenter=f6
sample=Violins2_trill_whole_FF_F6.opus
</region>

<region>
hikey=f5
hivel=127
lokey=e5
loop_end=249938
loop_mode=loop_continuous
loop_start=113415
loop_xfade=40043
lovel=1
offset=3261
pitch_keycenter=f5
sample=Violins2_trill_whole_FF_F5.opus
</region>

<region>
hikey=f4
hivel=127
lokey=e4
loop_end=255706
loop_mode=loop_continuous
loop_start=116033
loop_xfade=40967
lovel=1
offset=1736
pitch_keycenter=f4
sample=Violins2_trill_whole_FF_F4.opus
</region>

<region>
hikey=d#6
hivel=127
lokey=d6
loop_end=246270
loop_mode=loop_continuous
loop_start=111751
loop_xfade=39455
lovel=1
offset=1746
pitch_keycenter=d#6
sample=Violins2_trill_whole_FF_D#6.opus
</region>

<region>
hikey=d#5
hivel=127
lokey=d5
loop_end=252423
loop_mode=loop_continuous
loop_start=114543
loop_xfade=40441
lovel=1
offset=1451
pitch_keycenter=d#5
sample=Violins2_trill_whole_FF_D#5.opus
</region>

<region>
hikey=d#4
hivel=127
lokey=d4
loop_end=250973
loop_mode=loop_continuous
loop_start=113885
loop_xfade=40208
lovel=1
offset=4755
pitch_keycenter=d#4
sample=Violins2_trill_whole_FF_D#4.opus
</region>

<region>
hikey=c#6
hivel=127
lokey=c6
loop_end=254117
loop_mode=loop_continuous
loop_start=115312
loop_xfade=40712
lovel=1
offset=1155
pitch_keycenter=c#6
sample=Violins2_trill_whole_FF_C#6.opus
</region>

<region>
hikey=c#5
hivel=127
lokey=c5
loop_end=251263
loop_mode=loop_continuous
loop_start=114017
loop_xfade=40255
lovel=1
offset=5443
pitch_keycenter=c#5
sample=Violins2_trill_whole_FF_C#5.opus
</region>

<region>
hikey=c#4
hivel=127
lokey=c4
loop_end=246579
loop_mode=loop_continuous
loop_start=111891
loop_xfade=39504
lovel=1
offset=3957
pitch_keycenter=c#4
sample=Violins2_trill_whole_FF_C#4.opus
</region>

<region>
hikey=D7
hivel=127
lokey=a#6
loop_end=250376
loop_mode=loop_continuous
loop_start=113614
loop_xfade=40113
lovel=1
offset=15573
pitch_keycenter=B6
sample=Violins2_trill_whole_FF_B6.opus
</region>

<region>
hikey=b5
hivel=127
lokey=a#5
loop_end=249004
loop_mode=loop_continuous
loop_start=112992
loop_xfade=39893
lovel=1
offset=5142
pitch_keycenter=b5
sample=Violins2_trill_whole_FF_B5.opus
</region>

<region>
hikey=b4
hivel=127
lokey=a#4
loop_end=249994
loop_mode=loop_continuous
loop_start=113441
loop_xfade=40051
lovel=1
offset=2946
pitch_keycenter=b4
sample=Violins2_trill_whole_FF_B4.opus
</region>

<region>
hikey=b3
hivel=127
lokey=a#3
loop_end=249774
loop_mode=loop_continuous
loop_start=113341
loop_xfade=40016
lovel=1
offset=6913
pitch_keycenter=b3
sample=Violins2_trill_whole_FF_B3.opus
</region>

<region>
hikey=a6
hivel=127
lokey=g#6
loop_end=243990
loop_mode=loop_continuous
loop_start=110716
loop_xfade=39090
lovel=1
offset=6255
pitch_keycenter=a6
sample=Violins2_trill_whole_FF_A6.opus
</region>

<region>
hikey=a5
hivel=127
lokey=g#5
loop_end=248087
loop_mode=loop_continuous
loop_start=112575
loop_xfade=39746
lovel=1
offset=2770
pitch_keycenter=a5
sample=Violins2_trill_whole_FF_A5.opus
</region>

<region>
hikey=a4
hivel=127
lokey=g#4
loop_end=251745
loop_mode=loop_continuous
loop_start=114236
loop_xfade=40332
lovel=1
offset=2816
pitch_keycenter=a4
sample=Violins2_trill_whole_FF_A4.opus
</region>

<region>
hikey=a3
hivel=127
lokey=g#3
loop_end=242185
loop_mode=loop_continuous
loop_start=109897
loop_xfade=38800
lovel=1
offset=2719
pitch_keycenter=a3
sample=Violins2_trill_whole_FF_A3.opus
</region>
</group>

<group>
amp_veltrack=80.0
ampeg_release=1.50
group_label=Accent_copy
volume=6.0

<region>
end=45600
hivel=42
key=G6
lovel=0
offset=6309
sample=Violins2_staccato_PP_G6_RR1.opus
</region>

<region>
end=45600
hivel=42
key=G5
lovel=0
offset=7406
sample=Violins2_staccato_PP_G5_RR1.opus
</region>

<region>
end=45600
hivel=42
key=G4
lovel=0
offset=6487
sample=Violins2_staccato_PP_G4_RR1.opus
</region>

<region>
end=45600
hivel=42
key=G3
lovel=0
offset=3298
sample=Violins2_staccato_PP_G3_RR1.opus
</region>

<region>
end=45600
hivel=42
key=G#6
lovel=0
offset=3160
sample=Violins2_staccato_PP_G#6_RR1.opus
</region>

<region>
end=45600
hivel=42
key=G#5
lovel=0
offset=6562
sample=Violins2_staccato_PP_G#5_RR1.opus
</region>

<region>
end=45600
hivel=42
key=G#4
lovel=0
offset=1600
sample=Violins2_staccato_PP_G#4_RR1.opus
</region>

<region>
end=45600
hivel=42
key=G#3
lovel=0
offset=2153
sample=Violins2_staccato_PP_G#3_RR1.opus
</region>

<region>
end=45600
hivel=42
key=F6
lovel=0
offset=3534
sample=Violins2_staccato_PP_F6_RR1.opus
</region>

<region>
end=45600
hivel=42
key=F5
lovel=0
offset=6199
sample=Violins2_staccato_PP_F5_RR1.opus
</region>

<region>
end=45600
hivel=42
key=F4
lovel=0
offset=5898
sample=Violins2_staccato_PP_F4_RR1.opus
</region>

<region>
end=45600
hivel=42
key=F#6
lovel=0
offset=6250
sample=Violins2_staccato_PP_F#6_RR1.opus
</region>

<region>
end=45600
hivel=42
key=F#5
lovel=0
offset=5284
sample=Violins2_staccato_PP_F#5_RR1.opus
</region>

<region>
end=45600
hivel=42
key=F#4
lovel=0
offset=7153
sample=Violins2_staccato_PP_F#4_RR1.opus
</region>

<region>
end=45600
hivel=42
key=E6
lovel=0
offset=6064
sample=Violins2_staccato_PP_E6_RR1.opus
</region>

<region>
end=45600
hivel=42
key=E5
lovel=0
offset=8425
sample=Violins2_staccato_PP_E5_RR1.opus
</region>

<region>
end=45600
hivel=42
key=E4
lovel=0
offset=2275
sample=Violins2_staccato_PP_E4_RR1.opus
</region>

<region>
end=45600
hivel=42
key=D6
lovel=0
offset=8449
sample=Violins2_staccato_PP_D6_RR1.opus
</region>

<region>
end=45600
hivel=42
key=D5
lovel=0
offset=3851
sample=Violins2_staccato_PP_D5_RR1.opus
</region>

<region>
end=45600
hivel=42
key=D4
lovel=0
offset=1677
sample=Violins2_staccato_PP_D4_RR1.opus
</region>

<region>
end=45600
hivel=42
key=D#6
lovel=0
offset=4250
sample=Violins2_staccato_PP_D#6_RR1.opus
</region>

<region>
end=45600
hivel=42
key=D#5
lovel=0
offset=3026
sample=Violins2_staccato_PP_D#5_RR1.opus
</region>

<region>
end=45600
hivel=42
key=D#4
lovel=0
offset=2171
sample=Violins2_staccato_PP_D#4_RR1.opus
</region>

<region>
end=45600
hikey=D7
hivel=42
lokey=C7
lovel=0
offset=4888
pitch_keycenter=C7
sample=Violins2_staccato_PP_C7_RR1.opus
</region>

<region>
end=45600
hivel=42
key=C6
lovel=0
offset=3497
sample=Violins2_staccato_PP_C6_RR1.opus
</region>

<region>
end=45600
hivel=42
key=C5
lovel=0
offset=4030
sample=Violins2_staccato_PP_C5_RR1.opus
</region>

<region>
end=45600
hivel=42
key=C4
lovel=0
offset=2810
sample=Violins2_staccato_PP_C4_RR1.opus
</region>

<region>
end=45600
hivel=42
key=C#6
lovel=0
offset=8406
sample=Violins2_staccato_PP_C#6_RR1.opus
</region>

<region>
end=45600
hivel=42
key=C#5
lovel=0
offset=856
sample=Violins2_staccato_PP_C#5_RR1.opus
</region>

<region>
end=45600
hivel=42
key=C#4
lovel=0
offset=2641
sample=Violins2_staccato_PP_C#4_RR1.opus
</region>

<region>
end=45600
hivel=42
key=B6
lovel=0
offset=4706
sample=Violins2_staccato_PP_B6_RR1.opus
</region>

<region>
end=45600
hivel=42
key=B5
lovel=0
offset=9235
sample=Violins2_staccato_PP_B5_RR1.opus
</region>

<region>
end=45600
hivel=42
key=B4
lovel=0
offset=6908
sample=Violins2_staccato_PP_B4_RR1.opus
</region>

<region>
end=45600
hivel=42
key=B3
lovel=0
offset=4365
sample=Violins2_staccato_PP_B3_RR1.opus
</region>

<region>
end=45600
hivel=42
key=A6
lovel=0
offset=6013
sample=Violins2_staccato_PP_A6_RR1.opus
</region>

<region>
end=45600
hivel=42
key=A5
lovel=0
offset=3635
sample=Violins2_staccato_PP_A5_RR1.opus
</region>

<region>
end=45600
hivel=42
key=A4
lovel=0
offset=1828
sample=Violins2_staccato_PP_A4_RR1.opus
</region>

<region>
end=45600
hivel=42
key=A3
lovel=0
offset=5708
sample=Violins2_staccato_PP_A3_RR1.opus
</region>

<region>
end=45600
hivel=42
key=A#6
lovel=0
offset=4472
sample=Violins2_staccato_PP_A#6_RR1.opus
</region>

<region>
end=45600
hivel=42
key=A#5
lovel=0
offset=2204
sample=Violins2_staccato_PP_A#5_RR1.opus
</region>

<region>
end=45600
hivel=42
key=A#4
lovel=0
offset=2998
sample=Violins2_staccato_PP_A#4_RR1.opus
</region>

<region>
end=45600
hivel=42
key=A#3
lovel=0
offset=4671
sample=Violins2_staccato_PP_A#3_RR1.opus
</region>

<region>
end=45600
hivel=84
key=G6
lovel=43
offset=1430
sample=Violins2_staccato_MF_G6_RR1.opus
</region>

<region>
end=45600
hivel=84
key=G5
lovel=43
offset=2333
sample=Violins2_staccato_MF_G5_RR1.opus
</region>

<region>
end=45600
hivel=84
key=G4
lovel=43
offset=1991
sample=Violins2_staccato_MF_G4_RR1.opus
</region>

<region>
end=45600
hivel=84
key=G3
lovel=43
offset=1954
sample=Violins2_staccato_MF_G3_RR1.opus
</region>

<region>
end=45600
hivel=84
key=G#6
lovel=43
offset=2728
sample=Violins2_staccato_MF_G#6_RR1.opus
</region>

<region>
end=45600
hivel=84
key=G#5
lovel=43
offset=3449
sample=Violins2_staccato_MF_G#5_RR1.opus
</region>

<region>
end=45600
hivel=84
key=G#4
lovel=43
offset=4526
sample=Violins2_staccato_MF_G#4_RR1.opus
</region>

<region>
end=45600
hivel=84
key=G#3
lovel=43
offset=2284
sample=Violins2_staccato_MF_G#3_RR1.opus
</region>

<region>
end=45600
hivel=84
key=F6
lovel=43
offset=1778
sample=Violins2_staccato_MF_F6_RR1.opus
</region>

<region>
end=45600
hivel=84
key=F5
lovel=43
offset=1530
sample=Violins2_staccato_MF_F5_RR1.opus
</region>

<region>
end=45600
hivel=84
key=F4
lovel=43
offset=456
sample=Violins2_staccato_MF_F4_RR1.opus
</region>

<region>
end=45600
hivel=84
key=F#6
lovel=43
offset=2038
sample=Violins2_staccato_MF_F#6_RR1.opus
</region>

<region>
end=45600
hivel=84
key=F#5
lovel=43
offset=1778
sample=Violins2_staccato_MF_F#5_RR1.opus
</region>

<region>
end=45600
hivel=84
key=F#4
lovel=43
offset=2526
sample=Violins2_staccato_MF_F#4_RR1.opus
</region>

<region>
end=45600
hivel=84
key=E6
lovel=43
offset=2998
sample=Violins2_staccato_MF_E6_RR1.opus
</region>

<region>
end=45600
hivel=84
key=E5
lovel=43
offset=883
sample=Violins2_staccato_MF_E5_RR1.opus
</region>

<region>
end=45600
hivel=84
key=E4
lovel=43
offset=1678
sample=Violins2_staccato_MF_E4_RR1.opus
</region>

<region>
end=45600
hivel=84
key=D6
lovel=43
offset=1651
sample=Violins2_staccato_MF_D6_RR1.opus
</region>

<region>
end=45600
hivel=84
key=D5
lovel=43
offset=2553
sample=Violins2_staccato_MF_D5_RR1.opus
</region>

<region>
end=45600
hivel=84
key=D4
lovel=43
offset=1179
sample=Violins2_staccato_MF_D4_RR1.opus
</region>

<region>
end=45600
hivel=84
key=D#6
lovel=43
offset=2094
sample=Violins2_staccato_MF_D#6_RR1.opus
</region>

<region>
end=45600
hivel=84
key=D#5
lovel=43
offset=2257
sample=Violins2_staccato_MF_D#5_RR1.opus
</region>

<region>
end=45600
hivel=84
key=d#4
lovel=43
offset=1397
sample=Violins2_staccato_MF_D#4_RR1.opus
</region>

<region>
end=45600
hikey=D7
hivel=84
lokey=C7
lovel=43
offset=1420
pitch_keycenter=C7
sample=Violins2_staccato_MF_C7_RR1.opus
</region>

<region>
end=45600
hivel=84
key=C6
lovel=43
offset=3097
sample=Violins2_staccato_MF_C6_RR1.opus
</region>

<region>
end=45600
hivel=84
key=C5
lovel=43
offset=941
sample=Violins2_staccato_MF_C5_RR1.opus
</region>

<region>
end=45600
hivel=84
key=C4
lovel=43
offset=1281
sample=Violins2_staccato_MF_C4_RR1.opus
</region>

<region>
end=45600
hivel=84
key=C#6
lovel=43
offset=2236
sample=Violins2_staccato_MF_C#6_RR1.opus
</region>

<region>
end=45600
hivel=84
key=C#5
lovel=43
offset=832
sample=Violins2_staccato_MF_C#5_RR1.opus
</region>

<region>
end=45600
hivel=84
key=C#4
lovel=43
offset=1443
sample=Violins2_staccato_MF_C#4_RR1.opus
</region>

<region>
end=45600
hivel=84
key=B6
lovel=43
offset=690
sample=Violins2_staccato_MF_B6_RR1.opus
</region>

<region>
end=45600
hivel=84
key=B5
lovel=43
offset=3127
sample=Violins2_staccato_MF_B5_RR1.opus
</region>

<region>
end=45600
hivel=84
key=B4
lovel=43
offset=4529
sample=Violins2_staccato_MF_B4_RR1.opus
</region>

<region>
end=45600
hivel=84
key=B3
lovel=43
offset=1311
sample=Violins2_staccato_MF_B3_RR1.opus
</region>

<region>
end=45600
hivel=84
key=A6
lovel=43
offset=2445
sample=Violins2_staccato_MF_A6_RR1.opus
</region>

<region>
end=45600
hivel=84
key=A5
lovel=43
offset=1016
sample=Violins2_staccato_MF_A5_RR1.opus
</region>

<region>
end=45600
hivel=84
key=A4
lovel=43
offset=2100
sample=Violins2_staccato_MF_A4_RR1.opus
</region>

<region>
end=45600
hivel=84
key=A3
lovel=43
offset=1056
sample=Violins2_staccato_MF_A3_RR1.opus
</region>

<region>
end=45600
hivel=84
key=A#6
lovel=43
offset=2560
sample=Violins2_staccato_MF_A#6_RR1.opus
</region>

<region>
end=45600
hivel=84
key=A#5
lovel=43
offset=1278
sample=Violins2_staccato_MF_A#5_RR1.opus
</region>

<region>
end=45600
hivel=84
key=A#4
lovel=43
offset=1270
sample=Violins2_staccato_MF_A#4_RR1.opus
</region>

<region>
end=45600
hivel=84
key=A#3
lovel=43
offset=2088
sample=Violins2_staccato_MF_A#3_RR1.opus
</region>

<region>
end=45600
hivel=127
key=G6
lovel=85
offset=1454
sample=Violins2_staccato_FF_G6_RR1.opus
tune=0.00
</region>

<region>
end=45600
hivel=127
key=G5
lovel=85
offset=391
sample=Violins2_staccato_FF_G5_RR1.opus
tune=0.00
</region>

<region>
end=45600
hivel=127
key=G4
lovel=85
offset=1946
sample=Violins2_staccato_FF_G4_RR1.opus
tune=0.00
</region>

<region>
end=45600
hivel=127
key=G3
lovel=85
sample=Violins2_staccato_FF_G3_RR1.opus
tune=0.00
</region>

<region>
end=45600
hivel=127
key=G#6
lovel=85
offset=854
sample=Violins2_staccato_FF_G#6_RR1.opus
tune=0.00
</region>

<region>
end=45600
hivel=127
key=G#5
lovel=85
offset=1882
sample=Violins2_staccato_FF_G#5_RR1.opus
tune=0.00
</region>

<region>
end=45600
hivel=127
key=G#4
lovel=85
offset=3128
sample=Violins2_staccato_FF_G#4_RR1.opus
tune=0.00
</region>

<region>
end=45600
hivel=127
key=G#3
lovel=85
offset=2111
sample=Violins2_staccato_FF_G#3_RR1.opus
tune=0.00
</region>

<region>
end=45600
hivel=127
key=F6
lovel=85
offset=2871
sample=Violins2_staccato_FF_F6_RR1.opus
tune=0.00
</region>

<region>
end=45600
hivel=127
key=F5
lovel=85
offset=1860
sample=Violins2_staccato_FF_F5_RR1.opus
tune=0.00
</region>

<region>
end=45600
hivel=127
key=F4
lovel=85
offset=2704
sample=Violins2_staccato_FF_F4_RR1.opus
tune=0.00
</region>

<region>
end=45600
hivel=127
key=F#6
lovel=85
offset=126
sample=Violins2_staccato_FF_F#6_RR1.opus
tune=0.00
</region>

<region>
end=45600
hivel=127
key=F#5
lovel=85
offset=1645
sample=Violins2_staccato_FF_F#5_RR1.opus
tune=0.00
</region>

<region>
end=45600
hivel=127
key=F#4
lovel=85
offset=1304
sample=Violins2_staccato_FF_F#4_RR1.opus
tune=0.00
</region>

<region>
end=45600
hivel=127
key=e6
lovel=85
offset=1516
sample=Violins2_staccato_FF_E6_RR1.opus
tune=0.00
</region>

<region>
end=45600
hivel=127
key=E5
lovel=85
offset=1313
sample=Violins2_staccato_FF_E5_RR1.opus
tune=0.00
</region>

<region>
end=45600
hivel=127
key=e4
lovel=85
offset=853
sample=Violins2_staccato_FF_E4_RR1.opus
tune=0.00
</region>

<region>
end=45600
hivel=127
key=D6
lovel=85
offset=594
sample=Violins2_staccato_FF_D6_RR1.opus
tune=0.00
</region>

<region>
end=45600
hivel=127
key=D5
lovel=85
offset=2732
sample=Violins2_staccato_FF_D5_RR1.opus
tune=0.00
</region>

<region>
end=45600
hivel=127
key=D4
lovel=85
offset=1389
sample=Violins2_staccato_FF_D4_RR1.opus
tune=0.00
</region>

<region>
end=45600
hivel=127
key=D#6
lovel=85
offset=1487
sample=Violins2_staccato_FF_D#6_RR1.opus
tune=0.00
</region>

<region>
end=45600
hivel=127
key=D#5
lovel=85
offset=1446
sample=Violins2_staccato_FF_D#5_RR1.opus
tune=0.00
</region>

<region>
end=45600
hivel=127
key=D#4
lovel=85
offset=1075
sample=Violins2_staccato_FF_D#4_RR1.opus
tune=0.00
</region>

<region>
end=45600
hikey=D7
hivel=127
lokey=C7
lovel=85
offset=1248
pitch_keycenter=C7
sample=Violins2_staccato_FF_C7_RR1.opus
tune=0.00
</region>

<region>
end=45600
hivel=127
key=C6
lovel=85
offset=2102
sample=Violins2_staccato_FF_C6_RR1.opus
tune=0.00
</region>

<region>
end=45600
hivel=127
key=C5
lovel=85
offset=1051
sample=Violins2_staccato_FF_C5_RR1.opus
tune=0.00
</region>

<region>
end=45600
hivel=127
key=C4
lovel=85
offset=3068
sample=Violins2_staccato_FF_C4_RR1.opus
tune=0.00
</region>

<region>
end=45600
hivel=127
key=C#6
lovel=85
offset=2444
sample=Violins2_staccato_FF_C#6_RR1.opus
tune=0.00
</region>

<region>
end=45600
hivel=127
key=C#5
lovel=85
offset=3061
sample=Violins2_staccato_FF_C#5_RR1.opus
tune=0.00
</region>

<region>
end=45600
hivel=127
key=C#4
lovel=85
offset=1344
sample=Violins2_staccato_FF_C#4_RR1.opus
tune=0.00
</region>

<region>
end=45600
hivel=127
key=B6
lovel=85
offset=1295
sample=Violins2_staccato_FF_B6_RR1.opus
tune=0.00
</region>

<region>
end=45600
hivel=127
key=B5
lovel=85
offset=958
sample=Violins2_staccato_FF_B5_RR1.opus
tune=0.00
</region>

<region>
end=45600
hivel=127
key=B4
lovel=85
offset=1582
sample=Violins2_staccato_FF_B4_RR1.opus
tune=0.00
</region>

<region>
end=45600
hivel=127
key=B3
lovel=85
offset=1681
sample=Violins2_staccato_FF_B3_RR1.opus
tune=0.00
</region>

<region>
end=45600
hivel=127
key=A6
lovel=85
offset=83
sample=Violins2_staccato_FF_A6_RR1.opus
tune=0.00
</region>

<region>
end=45600
hivel=127
key=A5
lovel=85
offset=3290
sample=Violins2_staccato_FF_A5_RR1.opus
tune=0.00
</region>

<region>
end=45600
hivel=127
key=A4
lovel=85
offset=1189
sample=Violins2_staccato_FF_A4_RR1.opus
tune=0.00
</region>

<region>
end=45600
hivel=127
key=A3
lovel=85
offset=545
sample=Violins2_staccato_FF_A3_RR1.opus
tune=0.00
</region>

<region>
end=45600
hivel=127
key=A#6
lovel=85
offset=588
sample=Violins2_staccato_FF_A#6_RR1.opus
tune=0.00
</region>

<region>
end=45600
hivel=127
key=A#5
lovel=85
offset=1125
sample=Violins2_staccato_FF_A#5_RR1.opus
tune=0.00
</region>

<region>
end=45600
hivel=127
key=A#4
lovel=85
offset=1697
sample=Violins2_staccato_FF_A#4_RR1.opus
tune=0.00
</region>

<region>
end=45600
hivel=127
key=A#3
lovel=85
offset=3003
sample=Violins2_staccato_FF_A#3_RR1.opus
tune=0.00
</region>
</group>